<svg xmlns="http://www.w3.org/2000/svg" width="360" height="360" viewBox="0 0 360 360" fill="none"><path d="M147.697 325.164C148.462 327.976 150.608 331.273 151.785 333.627C178.492 337.71 178.586 325.16 184.828 317.854C187.895 314.263 192.279 312.005 196.807 310.665C207.461 307.514 233.231 303.485 271.265 292.531C272.074 289.576 272.624 286.941 273.289 284.162C274.506 282.553 275.062 280.648 274.225 278.463C272.159 273.072 264.91 273.79 260.374 274.362C249.977 275.672 239.809 278.49 229.627 280.878C219.369 283.282 208.975 285.008 198.618 286.926C169.593 292.299 164.04 288.553 161.529 288.983C155.823 285.694 149.476 283.683 142.836 284.905C133.862 286.556 126.146 295.641 128.36 304.979C128.682 306.342 130.791 306.512 130.981 306.506C132.311 307.849 133.947 309.035 135.053 310.492C139.53 308.428 143.118 307.296 147.854 305.925C151.071 308.395 153.93 310.885 157.11 313.356C153.793 316.158 150.581 319.083 147.207 321.819C146.094 322.723 146.731 324.626 147.697 325.164ZM263.851 277.595C266.101 277.528 273.644 277.229 269.385 283.156C264.402 290.09 194.469 297.83 180.081 311.093C179.521 303.657 173.558 297.662 167.71 293.158C195.667 294.984 250.832 277.983 263.851 277.595ZM147.976 288.164C155.596 288.578 162.554 293.365 168.185 298.154C174.309 303.362 179.836 311.08 173.956 318.662C168.529 325.658 159.378 325.062 151.691 322.744C155.036 319.922 158.272 316.972 161.672 314.215C162.716 313.368 162.115 312.489 161.993 311.994C161.366 309.441 160.738 306.888 160.11 304.335C160.019 303.961 159.363 302.707 158.73 302.381C155.144 300.542 151.638 298.561 148.149 296.543C147.397 296.108 146.672 296.272 146.165 296.708C141.156 298.256 136.298 300.176 131.571 302.433C130.76 293.871 140.118 287.738 147.976 288.164Z" fill="#BDFE6D"></path><path d="M50.4555 299.726C50.9518 299.999 51.4534 300.144 51.9561 300.182C53.5819 303.059 56.2042 301.858 58.3059 299.184C58.8667 298.471 59.3846 297.702 59.8674 296.899C64.5221 299.258 69.1768 301.617 73.8315 303.976C74.8282 304.481 75.8378 304.996 76.6628 305.749C77.2141 306.253 77.687 306.866 78.3503 307.211C79.5122 307.813 80.9184 307.439 82.1694 307.056C82.235 308.562 84.1089 309.148 85.5819 309.468C95.1174 311.54 102.624 318.64 111.133 323.418C117.114 326.775 124.418 328.977 130.857 327.142C132.019 327.362 133.181 327.584 134.344 327.804C135.4 328.004 136.719 327.322 136.622 326.067C136.499 324.468 135.69 323.791 134.604 322.643C133.161 321.12 131.719 319.595 130.276 318.072C130.161 317.95 129.491 317.281 129.26 317.154C118.946 311.494 108.656 305.788 98.3161 300.174C96.5829 299.233 94.6106 298.546 92.9395 297.544C91.835 296.882 90.4557 295.059 89.2422 294.531C88.5678 294.238 87.0866 294.656 86.7098 294.368C86.7479 294.397 85.9053 291.77 85.8755 291.71C85.593 291.15 84.9262 290.825 84.321 290.82C81.6796 290.791 79.6241 287.039 77.1702 288.512C73.3382 286.628 69.5061 284.743 65.6741 282.858C67.4811 278.384 68.8464 272.888 65.1954 271.188C59.9788 268.759 54.3532 279.537 52.7161 282.695C51.0397 285.928 45.3139 296.893 50.4555 299.726ZM76.5421 292.205C77.2176 292.538 78.185 292.553 78.7235 291.924C77.7889 293.015 82.7981 295.123 83.0167 295.338C83.8089 296.121 83.6132 296.971 84.6169 297.717C85.7741 298.58 88.034 299 89.3419 299.715C89.5484 299.828 127.342 320.206 127.471 320.275C127.541 320.392 127.626 320.507 127.731 320.617C128.607 321.543 129.484 322.47 130.36 323.395C129.012 323.14 127.663 322.884 126.314 322.628C115.19 317.045 103.799 311.804 92.8862 305.824C91.2034 304.902 89.6635 303.668 87.8829 302.952C87.3227 302.727 86.6958 302.837 86.1415 302.531C84.9848 301.893 85.3528 301.679 84.4628 301.029C82.0862 299.29 81.7581 300.224 79.7512 300.803C78.4001 299.172 75.8495 296.5 75.2589 298.729C75.4598 297.97 75.1288 297.087 74.4315 296.695C70.521 294.508 66.6104 292.318 62.6999 290.131C62.8505 289.561 63.7915 287.027 64.2163 286.144C68.3249 288.164 72.4335 290.184 76.5421 292.205ZM62.919 274.979C65.4807 275.524 60.4827 285.598 60.0409 286.493C59.3061 287.85 56.711 293.32 54.4604 295.303C53.3293 295.265 52.7357 294.373 52.5098 293.259C53.2751 289.924 55.7102 284.734 55.8245 284.511C56.6477 282.919 60.9637 274.563 62.919 274.979Z" fill="#BDFE6D"></path><path d="M64.0906 242.86C61.7785 243.273 59.4658 243.685 57.1537 244.097C56.4157 244.229 55.9408 244.76 55.809 245.401C55.5254 246.799 55.3215 248.211 55.0379 249.609C54.817 250.695 55.588 251.838 56.6703 251.878C57.2351 252.835 57.7994 253.791 58.3637 254.749C60.5832 254.874 63.0107 254.996 65.266 255.12C65.293 255.209 65.3205 255.298 65.348 255.389C63.5316 256.393 61.7158 257.398 59.9 258.404C58.6067 259.12 58.8785 260.994 59.5472 261.584C60.9512 262.825 62.3955 264.018 63.8 265.259C64.2131 265.624 64.7457 265.797 65.2607 265.755C66.7648 266.413 68.2367 267.144 69.6599 267.961C72.6014 267.473 75.5457 266.802 78.4877 266.251C78.964 266.48 79.4404 266.709 79.9168 266.938C78.94 268.32 78.023 269.748 76.9473 271.054C75.7629 272.492 76.9487 273.96 77.9158 274.306C80.2771 275.157 82.6385 276.007 84.9998 276.857C85.574 277.064 86.0592 276.971 86.4277 276.714C88.0056 276.862 89.5842 277.01 91.1627 277.157C92.8771 275.851 94.2465 274.62 95.8139 273.347C97.4832 273.699 99.166 273.992 100.86 274.237C101.482 276.084 102.133 277.92 102.737 279.773C103.015 280.624 104.218 281.373 104.929 281.436C107.5 281.659 110.071 281.881 112.643 282.104C113.554 282.183 113.835 281.7 114.084 281.47C114.935 280.968 116.821 280.65 117.802 280.541C118.58 278.611 118.786 276.854 119.563 274.924C124.022 274.301 123.097 274.461 123.469 274.371C125.681 275.652 127.709 277.153 129.55 278.932C130.149 279.664 131.311 279.795 132.14 279.003C133.919 278.204 135.458 277.044 137.073 275.932C138.794 274.747 137.426 273.36 136.757 272.52C138.212 271.887 139.645 269.83 140.885 268.535C143.255 269.073 145.596 269.723 147.907 270.5C148.816 270.805 149.881 270.223 150.395 269.543C151.238 268.428 152.072 267.307 152.843 266.141C153.332 265.402 153.194 263.532 151.783 263.082C150.082 262.538 148.41 261.941 146.762 261.276C146.933 260.717 147.104 260.158 147.276 259.599C149.146 259.759 151.643 259.543 153.513 259.702C153.549 259.136 153.505 258.364 153.332 257.657C154.158 257.213 154.393 256.121 154.037 255.291C153.586 251.396 153.674 251.005 153.109 250.337C152.928 249.931 152.555 249.617 151.941 249.532C149.466 249.188 147.006 248.863 144.513 248.738C144.001 248.038 143.508 247.323 143.025 246.602C143.991 246.189 145.078 245.839 146.076 245.605C145.9 245.012 145.725 244.42 145.549 243.828C146.313 243.06 146.225 241.863 145.16 241.045C143.972 240.133 142.789 238.75 141.617 237.67C141.487 237.549 140.622 236.857 139.927 236.829C137.717 236.742 135.539 236.888 133.357 237.202C131.454 236.295 129.552 235.387 127.65 234.48C128.024 233.993 128.398 233.506 128.773 233.019C129.298 232.336 129.076 230.972 127.811 230.401C125.626 229.447 123.441 228.492 121.256 227.537C120.369 227.152 119.799 227.221 119.289 227.496C117.808 228.295 116.431 229.272 115.171 230.387C112.755 229.488 110.237 228.918 107.675 228.615C107.303 227.618 106.931 226.621 106.559 225.625C106.266 224.84 105.616 224.3 104.63 224.279C102.143 224.226 99.6652 224.073 97.1902 223.828C96.2037 223.604 95.228 224.255 95.041 225.096C94.843 225.986 94.6449 226.876 94.4469 227.766C92.2531 227.913 90.0599 228.059 87.8662 228.205C86.4137 227.005 84.9605 225.805 83.508 224.605C82.7639 223.991 81.7109 223.876 80.9779 224.593C79.3431 225.236 77.6785 225.777 75.9646 226.18C75.0652 226.391 74.6832 227.071 74.6844 227.779C74.3598 228.337 74.2707 229.059 74.6685 229.577C75.1174 230.162 75.5668 230.748 76.0162 231.332C74.8156 232.034 73.5693 232.652 72.2721 233.162C72.0441 233.252 71.8338 233.373 71.651 233.52C69.5305 232.973 67.4094 232.427 65.2889 231.88C64.6502 231.411 63.7519 231.318 63.0295 232.046C61.7422 233.342 60.6465 234.818 59.3592 236.114C58.2031 237.277 59.1389 238.885 60.364 239.149C61.881 239.67 63.398 240.192 64.915 240.713C64.6402 241.429 64.3654 242.145 64.0906 242.86ZM139.283 240.417C139.838 240.937 140.38 241.47 140.924 242C140.277 242.223 139.628 242.443 138.979 242.664C137.5 243.169 137.422 244.93 138.361 246.138C139.824 248.021 141.015 250.098 142.479 251.983C142.939 252.575 143.813 252.622 144.482 252.335C146.388 252.427 148.272 252.639 150.164 252.894C150.213 253.339 150.266 253.784 150.316 254.231C148.34 254.202 146.363 254.173 144.387 254.145C143.421 254.131 142.739 254.897 142.535 255.587C141.996 257.407 141.458 259.228 140.919 261.049C140.583 262.186 141.325 262.986 142.219 263.205C144.331 264.198 146.486 265.066 148.684 265.835C148.461 266.144 148.234 266.451 148.007 266.757C145.049 265.804 142.048 265.038 138.989 264.471C137.766 264.243 137.019 264.584 136.585 264.937C135.158 266.094 133.731 267.252 132.304 268.408C130.872 268.659 130.29 270.179 131.304 271.442C132.021 272.335 132.737 273.228 133.453 274.121C132.719 274.651 131.96 275.138 131.157 275.527C129.251 273.816 127.174 272.312 124.938 271.052C124.396 270.746 123.372 270.805 123.249 270.821C120.352 271.197 117.457 271.572 114.56 271.948C113.632 272.07 113.039 272.323 112.764 273.24C112.251 274.953 111.737 276.668 111.223 278.381C109.45 278.227 107.678 278.074 105.905 277.92C105.266 276.013 104.59 274.118 103.966 272.204C103.672 271.306 103.183 270.964 102.543 270.877C98.7822 270.369 95.0867 269.595 91.4381 268.551C90.4449 268.268 89.7078 268.798 89.389 269.531C88.066 270.829 86.6527 272.016 85.1445 273.093C83.7588 272.594 82.3736 272.095 80.9879 271.597C81.9131 270.276 82.7949 268.924 83.8197 267.678C84.8133 266.47 84.1546 264.994 83.1471 264.509C80.7254 263.345 78.3037 262.181 75.8814 261.016C75.629 260.895 74.992 260.693 74.4746 260.772C71.5431 261.228 68.6117 261.683 65.6797 262.139C65.0181 261.564 64.3566 260.989 63.691 260.42C65.2713 259.545 66.8515 258.67 68.4318 257.796C69.4592 257.227 69.5163 256.132 69.0078 255.065C68.566 254.132 68.3269 253.119 68.0187 252.127C68.6275 251.161 68.4617 249.771 67.0508 249.579C64.3314 249.209 61.6127 248.839 58.8933 248.469C58.956 248.11 59.0258 247.752 59.0908 247.393C61.3555 246.99 63.6195 246.587 65.8836 246.182C67.1257 245.962 67.1038 245.008 67.2922 244.522C67.7978 243.204 68.3035 241.886 68.8097 240.568C69.254 239.408 67.6362 237.849 67.0191 237.637C65.9521 237.269 64.8851 236.902 63.8181 236.536C64.1287 236.175 64.4422 235.816 64.7609 235.462C67.0918 236.063 69.4232 236.664 71.7547 237.266C72.6652 237.5 73.3578 237.064 73.717 236.43C75.575 235.672 77.3615 234.785 79.0502 233.691C79.7347 233.249 80.6671 231.526 79.9584 230.601C79.5799 230.109 79.2014 229.616 78.8234 229.122C79.9062 228.806 80.9756 228.447 82.0267 228.03C83.2771 229.063 84.5269 230.095 85.7773 231.129C86.0492 231.583 86.5402 231.894 87.2545 231.846C90.0301 231.661 92.8062 231.475 95.5824 231.29C96.2061 231.25 97.4554 230.803 97.6765 229.809C97.8471 229.043 98.0176 228.276 98.1881 227.51C99.974 227.667 101.763 227.777 103.555 227.834C103.88 228.704 104.204 229.573 104.529 230.444C104.87 231.352 105.345 231.974 106.315 232.054C109.153 232.29 112.139 232.889 114.761 234.028C115.626 234.404 116.443 234.109 117.123 233.461C118.11 232.522 119.187 231.733 120.348 231.043C121.705 231.636 123.062 232.229 124.419 232.822C124.22 233.081 124.021 233.34 123.822 233.599C123.444 234.091 123.067 236.27 124.404 236.907C126.932 238.113 129.461 239.319 131.989 240.525C132.363 240.703 133.265 240.827 133.674 240.761C135.532 240.465 137.404 240.373 139.283 240.417Z" fill="#BDFE6D"></path><path d="M106.574 235.132C97.7042 234.254 79.12 235.681 77.8697 247.747C76.6843 259.185 93.0501 264.491 101.558 265.721C113.495 267.445 131.491 264.684 132.298 253.385C134.288 243.318 118.871 236.348 106.574 235.132ZM105.675 264.34C89.5251 263.382 73.5001 253.95 81.5341 243.346C83.6284 242.391 89.5832 238.507 103.859 239.846C115.254 240.916 128.488 244.801 129.457 256.208C125.452 263.625 112.991 264.775 105.675 264.34Z" fill="#BDFE6D"></path><path d="M243.358 185.189C251.469 181.902 259.863 179.401 267.974 176.114C270.093 175.255 269.167 171.771 267.017 172.643C258.906 175.93 250.512 178.431 242.401 181.718C240.282 182.577 241.208 186.061 243.358 185.189Z" fill="#BDFE6D"></path><path d="M309.692 203.622C310.031 203.459 310.376 203.308 310.715 203.145C312.8 202.136 310.977 199.032 308.898 200.036C281.208 213.418 250.522 222.737 247.315 224.388C246.298 217.83 243.821 211.269 241.435 205.119C239.253 199.497 237.024 193.523 233.908 188.354C232.329 185.733 229.461 181.782 226.157 181.277C221.495 180.565 221.046 184.97 221.789 189.074C216.75 185.369 211.435 182.004 206.118 178.783C199.325 174.669 192.916 172.457 185.33 174.458C184.726 169.312 183.489 164.122 182.048 159.005C190.155 158.806 256.529 157.32 260.29 148.082C261.274 146.839 259.842 144.641 258.611 143.648C237.631 126.631 216.836 109.823 192.461 96.4728C192.461 96.0228 192.386 94.8228 192.386 94.3728C191.188 93.5736 189.99 92.7744 188.792 91.9763C188.488 91.4854 188.155 91.3619 187.802 91.2134C185.635 90.3099 183.457 89.5271 181.274 88.8263C181.403 88.5779 181.475 88.2779 181.445 87.9146C181.086 83.492 181.34 78.3158 180.303 74.0232C179.975 72.6663 179.375 71.1937 178.148 70.5052C178.202 70.0464 178.235 70.4174 176.853 63.6322C179.01 64.0306 179.896 60.6896 177.687 60.1423C177.122 60.0029 176.557 59.8775 175.991 59.7498C175.969 59.3545 174.411 54.4309 174.371 54.3099C173.648 52.1209 170.17 53.0583 170.899 55.2673C171.303 56.4884 171.663 57.7212 172.039 58.9494C162.034 57.1787 151.983 57.2853 142.055 59.4626C142.983 56.5646 143.91 53.6677 144.838 50.7697C152.547 47.1322 160.732 46.6224 168.873 49.2228C171.086 49.9294 172.033 46.4548 169.831 45.7517C168.51 45.3298 167.188 44.9935 165.868 44.7251C165.95 44.0165 164.966 38.0844 164.739 27.3123C164.69 24.999 161.09 24.9908 161.139 27.3123C161.258 32.9537 161.631 38.5728 162.259 44.1802C158.805 43.8369 155.369 44.008 151.984 44.6759C151.988 39.433 151.257 34.2169 151.286 28.9728C151.299 26.6548 147.699 26.6525 147.686 28.9728C147.677 30.583 148.445 45.4201 148.488 45.549C146.523 46.1431 144.578 46.8955 142.664 47.8248C142.166 48.0662 141.766 48.564 141.61 49.0505C137.938 60.5208 138.066 59.8728 138.152 60.4341C137.665 60.5677 137.178 60.6955 136.691 60.8408C134.506 61.4888 135.396 64.8685 137.559 64.3294C137.14 70.3982 137.097 70.2533 137.262 70.7138C131.852 73.104 133.208 82.6383 133.517 88.5826C133.523 88.6916 133.543 88.79 133.564 88.8896C131.379 89.5775 129.2 90.3416 127.032 91.2134C126.282 91.5037 125.489 91.738 125.445 92.949C125.379 94.7502 125.239 96.5478 125.138 98.3466C104.078 113.735 81.8746 127.519 59.8246 141.427C57.1287 142.348 54.9338 143.643 54.0742 145.542C51.5623 151.085 63.0813 152.862 66.0819 153.48C83.5094 157.066 107.687 158.22 127.091 158.866C124.387 165.138 121.865 171.614 120.975 178.508C120.201 184.519 120.757 190.815 123.421 196.261C126.671 202.909 133.224 207.984 140.597 207.927C141.625 208.325 142.685 208.673 143.799 208.934C142.907 212.248 144.195 215.045 149.402 216.231C146.575 220.757 148.8 226.881 153.792 228.705C153.281 229.944 153.125 231.254 153.277 232.53C152.509 236.888 157.65 242.31 161.547 242.456C159.999 243.93 160.804 246.688 161.903 248.522C163.002 250.355 164.147 251.41 166.047 252.391C177.357 258.228 191.107 256.366 203.216 252.447C215.326 248.528 225.886 242.834 234.6 233.556C235.986 237.534 240.426 240.194 244.587 239.536C248.748 238.879 252.153 234.98 252.244 230.769C271.397 223.088 287.761 217.368 306.913 209.688C307.697 207.65 309.035 205.409 309.692 203.622ZM184.87 189.394C187.696 190.372 184.71 193.808 183.365 194.566C183.355 194.572 183.342 194.575 183.331 194.581C183.987 192.876 184.497 191.146 184.87 189.394ZM178.653 196.232C171.965 198.335 164.853 198.993 157.987 200.473C156.453 200.804 154.714 201.152 152.986 201.636C144.125 202.012 135.266 196.827 131.324 188.935C129.588 185.458 128.789 181.632 128.501 177.74C129.01 172.464 131.558 164.101 133.182 159.039C138.221 159.169 143.262 159.255 148.303 159.298C148.221 164.853 147.914 170.289 147.429 175.976C140.348 176.943 137.123 177.053 135.414 179.088C130.301 185.174 139.958 195.733 146.143 189.129C148.51 186.603 149.165 181.898 149.401 177.481C151.925 177.302 154.572 176.953 158.197 177.097C157.752 181.292 157.708 185.521 159.273 188.881C163.083 197.056 176.535 185.642 171.017 179.113C168.802 176.492 164.532 175.612 160.549 175.351C161.062 170.017 161.448 164.675 161.747 159.326C169.04 159.285 173.825 159.189 178.427 159.094C182.092 171.705 184.54 184.895 178.653 196.232ZM160.364 177.206C161.869 177.295 163.636 177.443 164.835 178.042C165.459 178.243 166.082 178.442 166.706 178.642C167.233 181.572 167.76 184.502 168.288 187.431C166.908 189.891 162.005 188.628 160.63 186.986C159.948 186.172 159.995 183.592 159.97 182.649C159.922 180.837 160.16 179.013 160.364 177.206ZM158.41 175.261C155 175.199 152.378 175.373 149.477 175.711C149.809 165.927 149.998 165.97 150.096 159.313C153.385 159.336 156.674 159.344 159.962 159.332C159.349 170.289 159.196 169.154 158.41 175.261ZM147.265 177.627C147.2 178.288 147.145 178.951 147.066 179.609C146.895 181.052 146.733 182.525 146.386 183.938C145.509 187.505 145.814 187.126 141.333 187.171C138.221 187.203 136.067 187.506 136.309 183.808C136.449 181.66 138.138 179.747 140.197 178.894C142.158 178.082 144.794 177.806 147.265 177.627ZM141.222 63.358C151.79 60.7845 162.417 60.6732 173.077 62.806C173.065 63.1554 172.997 62.7073 174.366 69.4177C161.66 67.4801 152.583 68.4244 140.778 69.8572C140.927 67.7009 141.112 64.9828 141.222 63.358ZM127.002 101.42C128.689 101.258 128.301 101.253 128.41 101.228C141.162 98.3431 154.182 96.4072 167.276 97.422C168.431 97.5123 168.425 95.7111 167.276 95.622C154.285 94.6154 141.342 96.5009 128.682 99.3263C128.754 97.6552 128.873 95.9853 128.967 94.3154C147.773 87.0005 166.995 86.7486 185.759 94.2615C186.037 95.5025 186.429 96.7201 186.582 97.9775C186.68 98.7814 187.135 99.488 187.894 99.7037C187.998 99.8314 188.117 99.9533 188.268 100.061C207.689 113.947 228.612 125.749 247.663 140.15C203.885 133.591 127.562 131.585 75.4393 138.842C74.0981 139.029 72.0186 139.202 69.6784 139.471C89.084 127.246 108.486 114.953 127.002 101.42ZM152.694 217.743C152.867 217.491 152.959 217.242 152.993 217.001C153.962 217.155 162.752 216.606 166.74 215.573C168.981 214.993 168.031 211.519 165.783 212.102C158.529 213.981 155.322 213.388 154.701 213.418C152.994 213.314 149.318 213.049 148.398 211.613C145.77 207.514 151.276 205.651 156.022 204.548C167.263 201.932 187.723 200.683 189.658 192.583C190.449 189.271 188.795 186.708 185.616 185.846C185.56 185.831 185.508 185.828 185.453 185.819C185.743 183.284 185.788 180.715 185.647 178.128C193.943 175.769 200.692 179.408 207.628 184.058C214.306 188.536 221.062 192.564 227.105 197.934C228.832 199.468 231.387 196.931 229.651 195.388C228.691 194.534 227.709 193.703 226.715 192.888C226.703 192.863 226.698 192.838 226.684 192.814C225.815 191.174 222.859 185.637 227.325 185.988C228.893 186.111 230.508 189.685 231.306 191.048C234.414 196.355 236.637 202.457 238.771 208.201C240.588 213.088 242.308 218.115 243.394 223.224C243.716 224.738 245.478 230.408 241.728 230.177C240.581 230.105 238.121 225.57 237.822 224.692C237.599 224.034 237.125 223.663 236.595 223.523C237.431 222.332 238.233 221.122 238.966 219.872C240.142 217.871 237.031 216.057 235.857 218.056C228.231 231.044 214.318 240.519 200.136 245.158C193.264 247.406 178.595 249.729 171.827 247.877C170.276 247.451 165.731 246.087 165.638 244.02C165.582 242.769 169.463 240.588 169.926 240.029C172.243 239.616 174.514 239.031 176.589 238.536C178.841 237.997 177.888 234.524 175.632 235.063C172.442 235.826 169.117 236.698 165.822 236.853C162.078 237.027 153.35 234.391 157.571 229.206C160.223 229.086 167.171 227.657 172.911 226.781C175.193 226.433 174.224 222.964 171.954 223.31C158.935 225.293 156.722 226.603 153.995 224.824C151.502 223.196 151.1 220.066 152.694 217.743Z" fill="#BDFE6D"></path><path d="M258.573 284.349C259.24 284.216 259.907 284.083 260.573 283.95C261.527 283.761 262.075 282.625 261.83 281.736C261.557 280.742 260.573 280.288 259.617 280.479C258.95 280.612 258.283 280.744 257.616 280.878C256.662 281.068 256.114 282.203 256.359 283.091C256.632 284.086 257.616 284.54 258.573 284.349Z" fill="#BDFE6D"></path><path d="M38.8689 72.3333C34.5872 72.3411 31.1277 68.7861 31.1353 64.3834C31.1353 64.3389 31.1353 64.2945 31.1353 64.25C31.1353 59.141 30.6262 55 30 55C29.3738 55 28.8647 59.141 28.8647 64.25C28.8647 64.2945 28.8647 64.3363 28.8647 64.3808C28.8723 68.7834 25.4103 72.3385 21.1286 72.3307C21.0853 72.3307 21.0445 72.3307 21.0013 72.3307C16.0297 72.3307 12 72.8512 12 73.4974C12 74.1409 16.0297 74.6667 21.0013 74.6667C21.0445 74.6667 21.0878 74.6667 21.1311 74.6667C25.4128 74.6589 28.8723 78.2139 28.8647 82.6166C28.8647 82.6611 28.8647 82.7055 28.8647 82.75C28.8647 87.859 29.3738 92 30 92C30.6288 92 31.1353 87.859 31.1353 82.75C31.1353 82.7055 31.1353 82.6637 31.1353 82.6192C31.1277 78.2166 34.5897 74.6615 38.8714 74.6693C38.9147 74.6693 38.9555 74.6693 38.9987 74.6693C43.9703 74.6693 48 74.1488 48 73.5026C48 72.8591 43.9703 72.3333 38.9987 72.3333C38.9555 72.3333 38.9122 72.3333 38.8689 72.3333Z" fill="#BDFE6D"></path></svg>